<svg xmlns="http://www.w3.org/2000/svg" id="Layer_2" data-name="Layer 2" viewBox="0 0 1005.88 657.07"><defs><style>.cls-1{fill:#4eacdb}</style></defs><g id="Layer_1-2" data-name="Layer 1"><path d="M674.22 443.57 573.6 528.31c-6.76 5.7-16.86 4.83-22.55-1.93l-37.06-44c-5.69-6.75-4.82-16.85 1.93-22.54l100.63-84.75c6.76-5.69 16.85-4.83 22.54 1.93l37.06 44c5.69 6.76 4.83 16.85-1.93 22.55Z" class="cls-1"/><path d="m1004.29 485.05-78.73 162.98a15.999 15.999 0 0 1-14.41 9.04H668.83c-4.71 0-9.19-2.08-12.23-5.68l-56.87-67.42c-5.7-6.75-4.84-16.85 1.91-22.54l100.52-84.8c6.76-5.7 16.85-4.85 22.55 1.91l123.04 145.85c3.04 3.6 7.51 5.68 12.23 5.68h34.39c6.14 0 11.74-3.52 14.41-9.05l65.53-135.93c2.4-4.99 2.06-10.86-.91-15.53L724.53 78.2c-6.21-9.76-20.41-9.91-26.82-.28L316.94 649.94a16.023 16.023 0 0 1-13.32 7.13H16.03c-12.77 0-20.4-14.23-13.32-24.87L418.81 7.13C421.77 2.67 426.77 0 432.13 0l265.89.06c5.49.01 10.59 2.82 13.52 7.46l291.87 462.02c2.95 4.67 3.28 10.54.88 15.51Z" class="cls-1"/></g></svg>