<?xml version="1.0" encoding="UTF-8"?>
<svg width="259px" height="26px" viewBox="0 0 259 26" version="1.1" xmlns="http://www.w3.org/2000/svg" xmlns:xlink="http://www.w3.org/1999/xlink">
    <!-- Generator: Sketch 59.1 (86144) - https://sketch.com -->
    <title>Group</title>
    <desc>Created with Sketch.</desc>
    <g id="Page-1" stroke="none" stroke-width="1" fill="none" fill-rule="evenodd">
        <g id="Group" fill-rule="nonzero">
            <g id="aE9gxu5plcmm6yFRK344yWbvrl8" fill="#4EACDB">
                <path d="M24.7987196,16.696468 L21.2407535,19.8594189 C21.001717,20.0721735 20.6445767,20.0397004 20.4433759,19.787381 L19.1329185,18.1450652 C18.9317177,17.893119 18.9624813,17.5161329 19.2011642,17.3037516 L22.7594838,14.1404274 C22.9985203,13.9280461 23.355307,13.9601459 23.5565078,14.2124653 L24.8669652,15.8547811 C25.068166,16.1071006 25.037756,16.4837134 24.7987196,16.696468 L24.7987196,16.696468 Z" id="Path"></path>
                <path d="M36.9414445,17.7168338 L34.0454619,23.6698069 C33.9472233,23.8717508 33.7412628,24 33.5154085,24 L24.6019765,24 C24.4287252,24 24.2639341,23.9240263 24.1521116,23.7925335 L22.0602212,21.3299648 C21.850554,21.0834158 21.882188,20.7145053 22.1304781,20.5066736 L25.827978,17.4092867 C26.076636,17.2010897 26.4477838,17.2321366 26.657451,17.4790509 L31.1833204,22.8063372 C31.2951429,22.93783 31.4595661,23.0138037 31.6331853,23.0138037 L32.8981776,23.0138037 C33.1240296,23.0138037 33.3300185,22.8852329 33.428231,22.6832453 L35.8386685,17.7182948 C35.9269494,17.5360312 35.9144429,17.3216248 35.8051953,17.1510493 L26.6508299,2.85631668 C26.422403,2.49982498 25.9000741,2.49434611 25.6642905,2.84608946 L11.658152,23.7395711 C11.548885,23.9021891 11.3650649,24 11.1681928,24 L0.589561632,24 C0.119833479,24 -0.160826334,23.480238 0.0996024308,23.0916036 L15.4053099,0.260428873 C15.5141897,0.0975238558 15.6981083,0 15.8952691,0 L25.6756934,0.00219154732 C25.8776361,0.00255680521 26.0652331,0.105194271 26.1730094,0.274673931 L36.9090748,17.1503188 C37.0175868,17.3208943 37.0297254,17.5353006 36.9414445,17.7168338 Z" id="Path"></path>
            </g>
            <g id="OpenAGI-Developers" transform="translate(41.724500, 4.486000)">
                <path d="M8.579,16.79 C7.35999391,16.79 6.23108853,16.5753355 5.19225,16.146 C4.15341147,15.7166645 3.24492056,15.1205871 2.46675,14.35775 C1.68857944,13.5949129 1.08291883,12.7017551 0.64975,11.67825 C0.216581168,10.6547449 1.42108547e-14,9.55267257 1.42108547e-14,8.372 C1.42108547e-14,7.18366073 0.21466452,6.08350506 0.644,5.0715 C1.07333548,4.05949494 1.67324615,3.17208715 2.44375,2.40925 C3.21425385,1.64641285 4.11699483,1.05416878 5.152,0.6325 C6.18700518,0.210831225 7.31399391,2.13162821e-14 8.533,2.13162821e-14 C9.7520061,2.13162821e-14 10.8789948,0.210831225 11.914,0.6325 C12.9490052,1.05416878 13.8536628,1.64641285 14.628,2.40925 C15.4023372,3.17208715 16.0041645,4.06332824 16.4335,5.083 C16.8628355,6.10267177 17.0775,7.20666073 17.0775,8.395 C17.0775,9.57567257 16.8628355,10.6758282 16.4335,11.6955 C16.0041645,12.7151718 15.4042539,13.6064129 14.63375,14.36925 C13.8632461,15.1320871 12.9624218,15.7262479 11.93125,16.15175 C10.9000782,16.5772521 9.78267269,16.79 8.579,16.79 Z M8.533,13.501 C9.50667154,13.501 10.3557464,13.2863355 11.08025,12.857 C11.8047536,12.4276645 12.368248,11.8277539 12.77075,11.05725 C13.173252,10.2867461 13.3745,9.39167177 13.3745,8.372 C13.3745,7.61299621 13.2595012,6.92300311 13.0295,6.302 C12.7994989,5.6809969 12.4698355,5.1443356 12.0405,4.692 C11.6111645,4.23966441 11.1013363,3.89275121 10.511,3.65125 C9.92066372,3.40974879 9.26133698,3.289 8.533,3.289 C7.56699517,3.289 6.72175362,3.49983123 5.99725,3.9215 C5.27274638,4.34316878 4.70925201,4.93541285 4.30675,5.69825 C3.90424799,6.46108715 3.703,7.35232824 3.703,8.372 C3.703,9.1386705 3.81799885,9.83824684 4.048,10.47075 C4.27800115,11.1032532 4.60574787,11.6437478 5.03125,12.09225 C5.45675213,12.5407522 5.96658036,12.8876654 6.56075,13.133 C7.15491964,13.3783346 7.81232973,13.501 8.533,13.501 Z M25.4955,16.744 C24.7364962,16.744 24.0426698,16.5983348 23.414,16.307 C22.7853302,16.0156652 22.2735853,15.6131692 21.87875,15.0995 C21.4839147,14.5858308 21.2558336,13.9993366 21.1945,13.34 L21.1945,8.625 C21.2558336,7.96566337 21.4858313,7.369586 21.8845,6.83675 C22.2831687,6.303914 22.7964708,5.88225155 23.4244219,5.57175 C24.0523729,5.26124845 24.7427254,5.106 25.4955,5.106 C26.5535053,5.106 27.4926626,5.35899747 28.313,5.865 C29.1333374,6.37100253 29.777331,7.06291228 30.245,7.94075 C30.712669,8.81858772 30.9465,9.81716107 30.9465,10.9365 C30.9465,12.0481722 30.712669,13.0409956 30.245,13.915 C29.777331,14.7890044 29.1333374,15.4789975 28.313,15.985 C27.4926626,16.4910025 26.5535053,16.744 25.4955,16.744 Z M19.0555,21.229 L19.0555,5.336 L22.5745,5.336 L22.5745,8.20560938 L21.988,10.925 L22.517,13.639 L22.517,21.229 L19.0555,21.229 Z M24.8579688,13.57 C25.3548671,13.57 25.7923419,13.4569178 26.1704063,13.23075 C26.5484706,13.0045822 26.8448323,12.6919291 27.0595,12.2927813 C27.2741677,11.8936334 27.3815,11.4362734 27.3815,10.9206875 C27.3815,10.4022266 27.2741677,9.94558531 27.0595,9.55075 C26.8448323,9.15591469 26.549429,8.8454178 26.1732813,8.61925 C25.7971335,8.3930822 25.3639712,8.28 24.8737813,8.28 C24.3835913,8.28 23.9487519,8.3918843 23.56925,8.61565625 C23.1897481,8.8394282 22.8945844,9.14980531 22.68375,9.54679688 C22.4729156,9.94378844 22.3675,10.4027057 22.3675,10.9235625 C22.3675,11.4381901 22.470999,11.8948313 22.678,12.2935 C22.885001,12.6921687 23.1782481,13.0045822 23.55775,13.23075 C23.9372519,13.4569178 24.3706538,13.57 24.8579688,13.57 Z M35.4724228,9.68760202 L40.3533717,9.66692004 C40.3050874,9.45212846 40.2418802,9.25623884 40.16375,9.07925 C39.9759157,8.65374787 39.7037518,8.32983445 39.34725,8.1075 C38.9907482,7.88516556 38.5480026,7.774 38.019,7.774 C37.4669972,7.774 36.9878354,7.90049874 36.5815,8.1535 C36.1751646,8.40650127 35.8627511,8.76491435 35.64425,9.22875 C35.5990549,9.32469041 35.558534,9.42464855 35.5226873,9.52862456 L35.4724228,9.68760202 L35.4724228,9.68760202 Z M35.4747988,12.1036636 C35.5263554,12.2786415 35.5905058,12.4435034 35.66725,12.59825 C35.9010845,13.0697524 36.2364978,13.4300821 36.6735,13.67925 C37.1105022,13.9284179 37.6318303,14.053 38.2375,14.053 C38.7895028,14.053 39.2878311,13.9590843 39.7325,13.77125 C40.1771689,13.5834157 40.568165,13.2978353 40.9055,12.9145 L42.8375,14.8465 C42.2854972,15.4828365 41.6185039,15.9619984 40.8365,16.284 C40.0544961,16.6060016 39.1920047,16.767 38.249,16.767 C37.0376606,16.767 35.9624214,16.5178358 35.02325,16.0195 C34.0840786,15.5211642 33.3461694,14.8292544 32.8095,13.94375 C32.2728307,13.0582456 32.0045,12.0520056 32.0045,10.925 C32.0045,9.80566107 32.2670807,8.80708772 32.79225,7.92925 C33.3174193,7.05141228 34.0342455,6.35758588 34.94275,5.84775 C35.8512545,5.33791412 36.8689944,5.083 37.996,5.083 C39.1000055,5.083 40.0755791,5.32258094 40.92275,5.80175 C41.7699209,6.28091906 42.4349976,6.94216245 42.918,7.7855 C43.4010024,8.62883755 43.6425,9.5909946 43.6425,10.672 C43.6425,10.879001 43.6310001,11.0936656 43.608,11.316 C43.5849999,11.5383344 43.5428336,11.7913319 43.4815,12.075 L35.4747988,12.1036636 L35.4747988,12.1036636 Z M52.716,16.514 L52.716,10.1545 C52.716,9.56416372 52.5358351,9.09075178 52.1755,8.73425 C51.8151649,8.37774822 51.3561278,8.1995 50.798375,8.1995 C50.4188731,8.1995 50.0820223,8.2799992 49.7878125,8.441 C49.4936027,8.60200081 49.2640842,8.83008186 49.09925,9.12525 C48.9344158,9.42041814 48.852,9.76349805 48.852,10.1545 L47.4835,9.4875 C47.4835,8.60582893 47.6770814,7.83725328 48.06425,7.18175 C48.4514186,6.52624672 48.985744,6.01641849 49.6672422,5.65225 C50.3487404,5.28808151 51.1212092,5.106 51.9846719,5.106 C52.8018947,5.106 53.5305801,5.30149805 54.17075,5.6925 C54.8109199,6.08350196 55.3149982,6.60099678 55.683,7.245 C56.0510018,7.88900322 56.235,8.5943295 56.235,9.361 L56.235,16.514 L52.716,16.514 Z M45.333,16.514 L45.333,5.336 L48.852,5.336 L48.852,16.514 L45.333,16.514 Z M65.6251208,4.83728019 L61.341,16.514 L57.592,16.514 L64.0205,0.276 L67.2865,0.276 L73.6575,16.514 L69.8395,16.514 L65.6251208,4.83728019 L65.6251208,4.83728019 Z M61.249,13.5815 L61.249,10.6375 L70.0925,10.6375 L70.0925,13.5815 L61.249,13.5815 Z M86.5049629,10.4469597 L81.8455,10.373 L81.8455,7.3255 L90.367,7.3255 L90.367,7.8545 C90.367,9.79417637 90.0181702,11.42716 89.3205,12.7535 C88.6228298,14.07984 87.6587562,15.08033 86.42825,15.755 C85.1977438,16.42967 83.7775081,16.767 82.1675,16.767 C80.9791607,16.767 79.8694218,16.5542521 78.83825,16.12875 C77.8070782,15.7032479 76.9062539,15.1090871 76.13575,14.34625 C75.3652461,13.5834129 74.7634188,12.6940884 74.33025,11.67825 C73.8970812,10.6624116 73.6805,9.56417257 73.6805,8.3835 C73.6805,7.19516073 73.9028311,6.09500506 74.3475,5.083 C74.7921689,4.07099494 75.4093294,3.1855038 76.199,2.4265 C76.9886706,1.66749621 77.9105781,1.07716878 78.96475,0.6555 C80.0189219,0.233831225 81.1516606,0.023 82.363,0.023 C83.7583403,0.023 85.0290776,0.27599747 86.17525,0.782 C87.3214224,1.28800253 88.2663296,1.98949552 89.01,2.8865 L86.5605,5.336 C86.0391641,4.66899667 85.4258369,4.16491837 84.7205,3.82375 C84.0151631,3.48258163 83.2178378,3.312 82.3285,3.312 C81.3701619,3.312 80.5172537,3.52283123 79.76975,3.9445 C79.0222463,4.36616878 78.4357521,4.95649621 78.01025,5.7155 C77.5847479,6.4745038 77.372,7.35999494 77.372,8.372 C77.372,9.38400506 77.5789979,10.2733295 77.993,11.04 C78.4070021,11.8066705 78.9743297,12.4046645 79.695,12.834 C80.4156703,13.2633355 81.243662,13.478 82.179,13.478 C83.1296714,13.478 83.9404133,13.2997518 84.61125,12.94325 C85.2820867,12.5867482 85.7957482,12.0654201 86.15225,11.37925 C86.263625,11.1648831 86.3576023,10.9364873 86.4341822,10.6940618 L86.5049629,10.4469597 L86.5049629,10.4469597 Z M92.5405,16.514 L92.5405,0.276 L96.163,0.276 L96.163,16.514 L92.5405,16.514 Z" id="OpenAGI" fill="#000000"></path>
                <path d="M105.39175,16.514 L105.39175,14.53025 L109.8365,14.53025 C111.009506,14.53025 112.042579,14.2753359 112.93575,13.7655 C113.828921,13.2556641 114.525622,12.5484212 115.025875,11.64375 C115.526128,10.7390788 115.77625,9.69450592 115.77625,8.51 C115.77625,7.34082749 115.523253,6.30679616 115.01725,5.407875 C114.511247,4.50895384 113.811671,3.80554421 112.9185,3.297625 C112.025329,2.78970579 110.998006,2.53575 109.8365,2.53575 L105.41475,2.53575 L105.41475,0.552 L109.88825,0.552 C111.049756,0.552 112.123078,0.752289664 113.10825,1.152875 C114.093422,1.55346034 114.953038,2.11312141 115.687125,2.831875 C116.421212,3.55062859 116.991415,4.39395349 117.39775,5.361875 C117.804085,6.32979651 118.00725,7.3868276 118.00725,8.533 C118.00725,9.66383899 117.804085,10.7160785 117.39775,11.68975 C116.991415,12.6634215 116.425045,13.5105797 115.698625,14.23125 C114.972205,14.9519203 114.116422,15.5125397 113.13125,15.913125 C112.146078,16.3137103 111.080422,16.514 109.93425,16.514 L105.39175,16.514 Z M103.96575,16.514 L103.96575,0.552 L106.1335,0.552 L106.1335,16.514 L103.96575,16.514 Z M122.020323,10.10275 L128.669251,10.10275 C128.610181,9.64806597 128.492764,9.24365131 128.317,8.8895 C128.060165,8.37199741 127.694086,7.97237641 127.21875,7.690625 C126.743414,7.40887359 126.166503,7.268 125.488,7.268 C124.774996,7.268 124.153044,7.42229012 123.622125,7.730875 C123.091206,8.03945988 122.679126,8.46974724 122.385875,9.02175 C122.247707,9.28183017 122.14209,9.56445868 122.069021,9.86963759 L122.020323,10.10275 L122.020323,10.10275 Z M122.014642,11.822 C122.087713,12.2465939 122.219123,12.6356757 122.408875,12.98925 C122.71746,13.5642529 123.153497,14.0098734 123.717,14.326125 C124.280503,14.6423766 124.932163,14.8005 125.672,14.8005 C126.281503,14.8005 126.844997,14.6912511 127.3625,14.47275 C127.880003,14.2542489 128.318915,13.9322521 128.67925,13.50675 L130.0075,14.85225 C129.486164,15.4655864 128.846962,15.9342067 128.089875,16.258125 C127.332788,16.5820433 126.524921,16.744 125.66625,16.744 C124.573745,16.744 123.592421,16.4967525 122.72225,16.00225 C121.852079,15.5077475 121.164003,14.828296 120.658,13.963875 C120.151997,13.099454 119.899,12.1267554 119.899,11.04575 C119.899,9.96857795 120.147206,9.00162928 120.643625,8.144875 C121.140044,7.28812072 121.815662,6.6096275 122.6705,6.109375 C123.525338,5.6091225 124.477911,5.359 125.52825,5.359 C126.536422,5.359 127.427663,5.58995602 128.202,6.051875 C128.976337,6.51379398 129.584873,7.14916262 130.027625,7.958 C130.470377,8.76683738 130.69175,9.69066147 130.69175,10.7295 C130.69175,10.8828341 130.682167,11.0476658 130.663,11.224 C130.643833,11.4003342 130.613167,11.5996656 130.571,11.822 L122.014642,11.822 L122.014642,11.822 Z M137.148031,13.2883768 L140.53,5.589 L142.74375,5.589 L137.7125,16.514 L136.505,16.514 L131.48525,5.589 L133.78525,5.589 L137.148031,13.2883768 L137.148031,13.2883768 Z M145.503323,10.10275 L152.152251,10.10275 C152.093181,9.64806597 151.975764,9.24365131 151.8,8.8895 C151.543165,8.37199741 151.177086,7.97237641 150.70175,7.690625 C150.226414,7.40887359 149.649503,7.268 148.971,7.268 C148.257996,7.268 147.636044,7.42229012 147.105125,7.730875 C146.574206,8.03945988 146.162126,8.46974724 145.868875,9.02175 C145.730707,9.28183017 145.62509,9.56445868 145.552021,9.86963759 L145.503323,10.10275 L145.503323,10.10275 Z M145.497642,11.822 C145.570713,12.2465939 145.702123,12.6356757 145.891875,12.98925 C146.20046,13.5642529 146.636497,14.0098734 147.2,14.326125 C147.763503,14.6423766 148.415163,14.8005 149.155,14.8005 C149.764503,14.8005 150.327997,14.6912511 150.8455,14.47275 C151.363003,14.2542489 151.801915,13.9322521 152.16225,13.50675 L153.4905,14.85225 C152.969164,15.4655864 152.329962,15.9342067 151.572875,16.258125 C150.815788,16.5820433 150.007921,16.744 149.14925,16.744 C148.056745,16.744 147.075421,16.4967525 146.20525,16.00225 C145.335079,15.5077475 144.647003,14.828296 144.141,13.963875 C143.634997,13.099454 143.382,12.1267554 143.382,11.04575 C143.382,9.96857795 143.630206,9.00162928 144.126625,8.144875 C144.623044,7.28812072 145.298662,6.6096275 146.1535,6.109375 C147.008338,5.6091225 147.960911,5.359 149.01125,5.359 C150.019422,5.359 150.910663,5.58995602 151.685,6.051875 C152.459337,6.51379398 153.067873,7.14916262 153.510625,7.958 C153.953377,8.76683738 154.17475,9.69066147 154.17475,10.7295 C154.17475,10.8828341 154.165167,11.0476658 154.146,11.224 C154.126833,11.4003342 154.096167,11.5996656 154.054,11.822 L145.497642,11.822 Z M156.41725,16.514 L156.41725,0.092 L158.493,0.092 L158.493,16.514 L156.41725,16.514 Z M166.50275,16.744 C165.440911,16.744 164.479713,16.4900442 163.619125,15.982125 C162.758537,15.4742058 162.075253,14.7870877 161.56925,13.92075 C161.063247,13.0544123 160.81025,12.088422 160.81025,11.02275 C160.81025,9.96091136 161.063247,9.00450425 161.56925,8.1535 C162.075253,7.30249574 162.758537,6.62400253 163.619125,6.118 C164.479713,5.61199747 165.440911,5.359 166.50275,5.359 C167.572255,5.359 168.537287,5.6091225 169.397875,6.109375 C170.258463,6.6096275 170.941747,7.28812072 171.44775,8.144875 C171.953753,9.00162928 172.20675,9.96091136 172.20675,11.02275 C172.20675,12.0922553 171.953753,13.059204 171.44775,13.923625 C170.941747,14.788046 170.258463,15.4742058 169.397875,15.982125 C168.537287,16.4900442 167.572255,16.744 166.50275,16.744 Z M166.50275,14.74875 C167.196587,14.74875 167.812789,14.5887099 168.351375,14.268625 C168.889961,13.9485401 169.311623,13.5057945 169.616375,12.940375 C169.921127,12.3749555 170.0735,11.7338369 170.0735,11.017 C170.0735,10.3078298 169.918252,9.67916941 169.60775,9.131 C169.297248,8.58283059 168.875586,8.14966826 168.34275,7.8315 C167.809914,7.51333174 167.196587,7.35425 166.50275,7.35425 C165.820413,7.35425 165.209003,7.51333174 164.6685,7.8315 C164.127997,8.14966826 163.705377,8.58283059 163.400625,9.131 C163.095873,9.67916941 162.9435,10.3097464 162.9435,11.02275 C162.9435,11.7395869 163.095873,12.3797472 163.400625,12.94325 C163.705377,13.5067528 164.127997,13.9485401 164.6685,14.268625 C165.209003,14.5887099 165.820413,14.74875 166.50275,14.74875 Z M180.274,16.744 C179.442163,16.744 178.695628,16.5705434 178.034375,16.223625 C177.373122,15.8767066 176.843169,15.3975447 176.4445,14.786125 C176.045831,14.1747053 175.8235,13.4760873 175.7775,12.69025 L175.7775,9.407 C175.8235,8.61349603 176.049665,7.91200305 176.456,7.3025 C176.862335,6.69299695 177.39708,6.21671005 178.06025,5.873625 C178.72342,5.53053995 179.461329,5.359 180.274,5.359 C181.274505,5.359 182.175329,5.61199747 182.9765,6.118 C183.777671,6.62400253 184.411123,7.30632904 184.876875,8.165 C185.342627,9.02367096 185.5755,9.99349459 185.5755,11.0745 C185.5755,12.140172 185.343586,13.1013707 184.87975,13.958125 C184.415914,14.8148793 183.782462,15.4933725 182.979375,15.993625 C182.176288,16.4938775 181.274505,16.744 180.274,16.744 Z M174.524,21.091 L174.524,5.589 L176.59975,5.589 L176.59975,8.45825 L176.2145,11.11475 L176.59975,13.77125 L176.59975,21.091 L174.524,21.091 Z M179.929,14.78325 C180.619003,14.78325 181.226581,14.6251266 181.75175,14.308875 C182.276919,13.9926234 182.689957,13.5527528 182.990875,12.98925 C183.291793,12.4257472 183.44225,11.779837 183.44225,11.0515 C183.44225,10.3193297 183.291793,9.67246114 182.990875,9.110875 C182.689957,8.54928886 182.277878,8.11037658 181.754625,7.794125 C181.231372,7.47787342 180.628587,7.31975 179.94625,7.31975 C179.263913,7.31975 178.660169,7.47787342 178.135,7.794125 C177.609831,8.11037658 177.201585,8.54928886 176.91025,9.110875 C176.618915,9.67246114 176.47325,10.3212463 176.47325,11.05725 C176.47325,11.785587 176.617957,12.4305389 176.907375,12.992125 C177.196793,13.5537111 177.603122,13.9926234 178.126375,14.308875 C178.649628,14.6251266 179.250497,14.78325 179.929,14.78325 Z M189.329823,10.10275 L195.978751,10.10275 C195.919681,9.64806597 195.802264,9.24365131 195.6265,8.8895 C195.369665,8.37199741 195.003586,7.97237641 194.52825,7.690625 C194.052914,7.40887359 193.476003,7.268 192.7975,7.268 C192.084496,7.268 191.462544,7.42229012 190.931625,7.730875 C190.400706,8.03945988 189.988626,8.46974724 189.695375,9.02175 C189.557207,9.28183017 189.45159,9.56445868 189.378521,9.86963759 L189.329823,10.10275 L189.329823,10.10275 Z M189.324142,11.822 C189.397213,12.2465939 189.528623,12.6356757 189.718375,12.98925 C190.02696,13.5642529 190.462997,14.0098734 191.0265,14.326125 C191.590003,14.6423766 192.241663,14.8005 192.9815,14.8005 C193.591003,14.8005 194.154497,14.6912511 194.672,14.47275 C195.189503,14.2542489 195.628415,13.9322521 195.98875,13.50675 L197.317,14.85225 C196.795664,15.4655864 196.156462,15.9342067 195.399375,16.258125 C194.642288,16.5820433 193.834421,16.744 192.97575,16.744 C191.883245,16.744 190.901921,16.4967525 190.03175,16.00225 C189.161579,15.5077475 188.473503,14.828296 187.9675,13.963875 C187.461497,13.099454 187.2085,12.1267554 187.2085,11.04575 C187.2085,9.96857795 187.456706,9.00162928 187.953125,8.144875 C188.449544,7.28812072 189.125162,6.6096275 189.98,6.109375 C190.834838,5.6091225 191.787411,5.359 192.83775,5.359 C193.845922,5.359 194.737163,5.58995602 195.5115,6.051875 C196.285837,6.51379398 196.894373,7.14916262 197.337125,7.958 C197.779877,8.76683738 198.00125,9.69066147 198.00125,10.7295 C198.00125,10.8828341 197.991667,11.0476658 197.9725,11.224 C197.953333,11.4003342 197.922667,11.5996656 197.8805,11.822 L189.324142,11.822 L189.324142,11.822 Z M200.24375,16.514 L200.24375,5.589 L202.3195,5.589 L202.3195,16.514 L200.24375,16.514 Z M202.3195,10.2925 L201.54325,9.93025 C201.54325,8.54640975 201.865247,7.43858749 202.50925,6.60675 C203.153253,5.77491251 204.080911,5.359 205.29225,5.359 C205.836586,5.359 206.332039,5.45674902 206.778625,5.65225 C207.225211,5.84775098 207.640165,6.16208117 208.0235,6.59525 L206.66075,8.004 C206.430749,7.75483209 206.176793,7.57658387 205.898875,7.46925 C205.620957,7.36191613 205.299918,7.30825 204.93575,7.30825 C204.172913,7.30825 203.546169,7.5545392 203.0555,8.047125 C202.564831,8.5397108 202.3195,9.28816164 202.3195,10.2925 Z M212.70975,16.744 C212.107914,16.744 211.531961,16.6635008 210.981875,16.5025 C210.431789,16.3414992 209.928669,16.1134181 209.4725,15.81825 C209.016331,15.5230819 208.617668,15.1685021 208.2765,14.7545 L209.60475,13.4205 C210.007252,13.9035024 210.470122,14.2638321 210.993375,14.5015 C211.516628,14.7391679 212.102163,14.858 212.75,14.858 C213.394003,14.858 213.890415,14.7477928 214.23925,14.527375 C214.588085,14.3069572 214.7625,13.9935854 214.7625,13.58725 C214.7625,13.1885813 214.621626,12.8780844 214.339875,12.65575 C214.058124,12.4334156 213.693961,12.2503757 213.247375,12.106625 C212.800789,11.9628743 212.330252,11.820084 211.83575,11.67825 C211.341248,11.536416 210.870711,11.3505011 210.424125,11.1205 C209.977539,10.8904988 209.613376,10.5732937 209.331625,10.168875 C209.049874,9.76445631 208.909,9.23450328 208.909,8.579 C208.909,7.91966337 209.067123,7.35041906 209.383375,6.87125 C209.699627,6.39208094 210.148122,6.02025132 210.728875,5.75575 C211.309628,5.49124868 212.002496,5.359 212.8075,5.359 C213.662338,5.359 214.424205,5.51041515 215.093125,5.81325 C215.762045,6.11608485 216.313081,6.56649701 216.74625,7.1645 L215.418,8.49275 C215.099832,8.08641463 214.716502,7.77687606 214.268,7.564125 C213.819498,7.35137394 213.30967,7.245 212.7385,7.245 C212.14433,7.245 211.688168,7.35041561 211.37,7.56125 C211.051832,7.77208439 210.89275,8.05766486 210.89275,8.418 C210.89275,8.78216849 211.033624,9.06583232 211.315375,9.269 C211.597126,9.47216768 211.961289,9.64083266 212.407875,9.775 L213.8195,10.19475 L213.8195,10.19475 C214.314002,10.3404174 214.784539,10.5359154 215.231125,10.78125 C215.677711,11.0265846 216.041874,11.3562479 216.323625,11.77025 C216.605376,12.1842521 216.74625,12.7304966 216.74625,13.409 C216.74625,14.4325051 216.383045,15.2442053 215.656625,15.844125 C214.930205,16.4440447 213.947923,16.744 212.70975,16.744 Z" id="Developers" fill="#505050"></path>
            </g>
        </g>
    </g>
</svg>