<?xml version="1.0" encoding="UTF-8"?>
<svg width="258px" height="26px" viewBox="0 0 258 26" version="1.1" xmlns="http://www.w3.org/2000/svg" xmlns:xlink="http://www.w3.org/1999/xlink">
    <!-- Generator: Sketch 59.1 (86144) - https://sketch.com -->
    <title>Group</title>
    <desc>Created with Sketch.</desc>
    <g id="Page-1" stroke="none" stroke-width="1" fill="none" fill-rule="evenodd">
        <g id="Group" transform="translate(0.000000, -2.000000)">
            <g id="aE9gxu5plcmm6yFRK344yWbvrl8" transform="translate(0.000000, 2.000000)" fill="#4EACDB" fill-rule="nonzero">
                <path d="M24.7987196,16.696468 L21.2407535,19.8594189 C21.001717,20.0721735 20.6445767,20.0397004 20.4433759,19.787381 L19.1329185,18.1450652 C18.9317177,17.893119 18.9624813,17.5161329 19.2011642,17.3037516 L22.7594838,14.1404274 C22.9985203,13.9280461 23.355307,13.9601459 23.5565078,14.2124653 L24.8669652,15.8547811 C25.068166,16.1071006 25.037756,16.4837134 24.7987196,16.696468 L24.7987196,16.696468 Z" id="Path"></path>
                <path d="M36.9414445,17.7168338 L34.0454619,23.6698069 C33.9472233,23.8717508 33.7412628,24 33.5154085,24 L24.6019765,24 C24.4287252,24 24.2639341,23.9240263 24.1521116,23.7925335 L22.0602212,21.3299648 C21.850554,21.0834158 21.882188,20.7145053 22.1304781,20.5066736 L25.827978,17.4092867 C26.076636,17.2010897 26.4477838,17.2321366 26.657451,17.4790509 L31.1833204,22.8063372 C31.2951429,22.93783 31.4595661,23.0138037 31.6331853,23.0138037 L32.8981776,23.0138037 C33.1240296,23.0138037 33.3300185,22.8852329 33.428231,22.6832453 L35.8386685,17.7182948 C35.9269494,17.5360312 35.9144429,17.3216248 35.8051953,17.1510493 L26.6508299,2.85631668 C26.422403,2.49982498 25.9000741,2.49434611 25.6642905,2.84608946 L11.658152,23.7395711 C11.548885,23.9021891 11.3650649,24 11.1681928,24 L0.589561632,24 C0.119833479,24 -0.160826334,23.480238 0.0996024308,23.0916036 L15.4053099,0.260428873 C15.5141897,0.0975238558 15.6981083,0 15.8952691,0 L25.6756934,0.00219154732 C25.8776361,0.00255680521 26.0652331,0.105194271 26.1730094,0.274673931 L36.9090748,17.1503188 C37.0175868,17.3208943 37.0297254,17.5353006 36.9414445,17.7168338 Z" id="Path"></path>
            </g>
            <text id="OpenAGI-Developers" font-family="Outfit-Thin_Bold, Outfit" font-size="23" font-weight="bold">
                <tspan x="41" y="23" fill="#000000">OpenAGI </tspan>
                <tspan x="143.81" y="23" font-family="Outfit-Thin_Regular, Outfit" font-weight="normal" fill="#505050">Developers</tspan>
            </text>
        </g>
    </g>
</svg>